<svg width="512" height="512" viewBox="0 0 512 512" fill="none" xmlns="http://www.w3.org/2000/svg">
<rect width="512" height="512" fill="white"/>
<g clip-path="url(#clip0_1713_580)">
<path d="M125.106 250.616H124.224V226.46C124.224 224.624 123.863 222.807 123.16 221.11C122.457 219.414 121.428 217.873 120.129 216.575C118.831 215.277 117.29 214.247 115.594 213.544C113.898 212.842 112.08 212.48 110.244 212.48H59.0676C55.3598 212.48 51.8038 213.953 49.1819 216.575C46.5601 219.197 45.0872 222.753 45.0872 226.46V358.978C45.0872 360.814 45.4488 362.632 46.1513 364.328C46.8539 366.024 47.8837 367.565 49.1819 368.864C50.4801 370.162 52.0213 371.192 53.7175 371.894C55.4136 372.597 57.2316 372.958 59.0675 372.958H110.244C113.952 372.958 117.507 371.485 120.129 368.864C122.751 366.242 124.224 362.686 124.224 358.978V267.81H125.106L125.106 250.616Z" fill="#E5E5E5"/>
<path d="M110.808 216.117H104.128C104.435 216.87 104.552 217.688 104.469 218.497C104.386 219.306 104.105 220.082 103.652 220.757C103.198 221.432 102.585 221.986 101.867 222.368C101.15 222.751 100.349 222.951 99.5352 222.951H70.217C69.4036 222.951 68.6027 222.751 67.8849 222.368C67.167 221.986 66.5542 221.432 66.1005 220.757C65.6468 220.082 65.3661 219.306 65.2831 218.497C65.2001 217.688 65.3174 216.87 65.6246 216.117H59.3852C56.6163 216.117 53.9607 217.217 52.0028 219.175C50.0448 221.133 48.9448 223.789 48.9448 226.558V358.881C48.9448 360.252 49.2149 361.609 49.7396 362.876C50.2642 364.143 51.0333 365.294 52.0027 366.263C52.9722 367.233 54.1232 368.002 55.3898 368.526C56.6565 369.051 58.0142 369.321 59.3852 369.321H110.808C112.179 369.321 113.537 369.051 114.803 368.526C116.07 368.002 117.221 367.233 118.19 366.263C119.16 365.294 119.929 364.143 120.454 362.876C120.978 361.609 121.248 360.252 121.248 358.881V226.558C121.248 225.187 120.978 223.829 120.454 222.562C119.929 221.296 119.16 220.145 118.19 219.175C117.221 218.206 116.07 217.437 114.803 216.912C113.537 216.387 112.179 216.117 110.808 216.117Z" fill="white"/>
<path d="M109.376 271.775H63.0935V303H109.376V271.775Z" fill="white"/>
<path d="M109.536 303.16H62.9341V271.616H109.536V303.16ZM63.2533 302.841H109.217V271.935H63.2533V302.841Z" fill="#3F3D56"/>
<path d="M67.0049 296.156H105.465V274.253H67.0049V296.156Z" fill="#E6E6E6"/>
<path d="M78.3191 287.871C80.448 287.871 82.1738 286.145 82.1738 284.016C82.1738 281.887 80.448 280.161 78.3191 280.161C76.1902 280.161 74.4644 281.887 74.4644 284.016C74.4644 286.145 76.1902 287.871 78.3191 287.871Z" fill="#6C63FF"/>
<path d="M90.407 295.895H71.4969C71.4733 295.895 71.4496 295.893 71.4263 295.889L80.3699 280.397C80.4245 280.301 80.5037 280.221 80.5994 280.165C80.6952 280.109 80.8041 280.08 80.9149 280.08C81.0258 280.08 81.1346 280.109 81.2304 280.165C81.3261 280.221 81.4054 280.301 81.4599 280.397L87.4622 290.794L87.7498 291.291L90.407 295.895Z" fill="#3F3D56"/>
<path opacity="0.2" d="M90.407 295.895H83.9507L87.12 291.291L87.3483 290.959L87.4625 290.793L87.7497 291.291L90.407 295.895Z" fill="black"/>
<path d="M100.936 295.895H84.5803L87.7497 291.291L87.9778 290.959L92.1078 284.96C92.1809 284.868 92.2723 284.793 92.3764 284.739C92.4804 284.685 92.5946 284.654 92.7116 284.647C92.8285 284.64 92.9457 284.657 93.0554 284.698C93.1651 284.74 93.2649 284.803 93.3483 284.886C93.3697 284.909 93.3896 284.934 93.4078 284.96L100.936 295.895Z" fill="#3F3D56"/>
<path d="M221.64 373.078H97.5913C94.6511 373.075 91.8323 371.905 89.7533 369.826C87.6742 367.747 86.5048 364.928 86.5015 361.988V182.089C86.5048 179.149 87.6742 176.33 89.7533 174.251C91.8323 172.172 94.6511 171.003 97.5913 171H221.64C224.58 171.003 227.399 172.172 229.478 174.251C231.557 176.33 232.727 179.149 232.73 182.089V361.988C232.727 364.928 231.557 367.747 229.478 369.826C227.399 371.905 224.58 373.075 221.64 373.078Z" fill="#E5E5E5"/>
<path d="M221.859 366.003H97.3729C96.4666 366.002 95.5977 365.641 94.9568 365C94.3159 364.359 93.9554 363.49 93.9543 362.584V181.494C93.9554 180.587 94.3159 179.718 94.9568 179.078C95.5977 178.437 96.4666 178.076 97.3729 178.075H221.859C222.765 178.076 223.634 178.437 224.275 179.078C224.916 179.718 225.276 180.587 225.277 181.494V362.584C225.276 363.49 224.916 364.359 224.275 365C223.634 365.641 222.765 366.002 221.859 366.003Z" fill="white"/>
<path d="M159.144 175.339C159.665 175.339 160.087 174.917 160.087 174.396C160.087 173.875 159.665 173.452 159.144 173.452C158.623 173.452 158.201 173.875 158.201 174.396C158.201 174.917 158.623 175.339 159.144 175.339Z" fill="white"/>
<path d="M211.496 229.772H113.55V295.851H211.496V229.772Z" fill="white"/>
<path d="M211.834 296.19H113.212V229.435H211.834V296.19ZM113.887 295.514H211.158V230.11H113.887V295.514Z" fill="#3F3D56"/>
<path d="M121.827 281.366H203.219V235.014H121.827V281.366Z" fill="#E6E6E6"/>
<path d="M145.771 263.834C150.276 263.834 153.928 260.182 153.928 255.676C153.928 251.171 150.276 247.519 145.771 247.519C141.265 247.519 137.613 251.171 137.613 255.676C137.613 260.182 141.265 263.834 145.771 263.834Z" fill="#6C63FF"/>
<path d="M171.352 280.815H131.333C131.283 280.815 131.233 280.811 131.184 280.803L150.111 248.018C150.226 247.814 150.394 247.644 150.596 247.526C150.799 247.408 151.029 247.346 151.264 247.346C151.499 247.346 151.729 247.408 151.932 247.526C152.134 247.644 152.302 247.814 152.418 248.018L165.12 270.019L165.728 271.072L171.352 280.815Z" fill="#3F3D56"/>
<path opacity="0.2" d="M171.352 280.815H157.689L164.396 271.072L164.879 270.37L165.12 270.02L165.728 271.072L171.352 280.815Z" fill="black"/>
<path d="M193.634 280.815H159.021L165.729 271.072L166.211 270.37L174.951 257.674C175.106 257.48 175.3 257.321 175.52 257.206C175.74 257.092 175.982 257.025 176.229 257.01C176.477 256.996 176.725 257.033 176.957 257.12C177.189 257.208 177.4 257.343 177.577 257.517C177.622 257.566 177.664 257.619 177.703 257.674L193.634 280.815Z" fill="#3F3D56"/>
<path d="M344.799 370.942L338.52 368.298L334.212 336.821H276.851L272.182 368.17L266.564 370.978C266.295 371.113 266.08 371.334 265.952 371.606C265.825 371.878 265.793 372.186 265.862 372.478C265.931 372.77 266.097 373.031 266.333 373.218C266.568 373.404 266.86 373.505 267.161 373.505H344.281C344.589 373.506 344.888 373.399 345.126 373.204C345.364 373.009 345.528 372.737 345.589 372.436C345.65 372.134 345.604 371.82 345.46 371.548C345.316 371.276 345.083 371.062 344.799 370.942Z" fill="#E6E6E6"/>
<path d="M446.734 341.008H164.958C163.48 341.005 162.063 340.416 161.019 339.369C159.975 338.322 159.388 336.904 159.388 335.426V295.692H452.304V335.426C452.304 336.904 451.718 338.322 450.673 339.369C449.629 340.415 448.212 341.005 446.734 341.008Z" fill="#CCCCCC"/>
<path d="M452.598 314.471H159.131V144.458C159.133 142.673 159.843 140.963 161.105 139.701C162.366 138.44 164.077 137.73 165.861 137.728H445.869C447.653 137.73 449.363 138.44 450.625 139.701C451.887 140.963 452.596 142.673 452.598 144.458V314.471Z" fill="#E5E5E5"/>
<path d="M435.071 302.132H176.659C175.283 302.13 173.965 301.583 172.992 300.611C172.019 299.638 171.472 298.319 171.471 296.944V155.256C171.472 153.88 172.019 152.561 172.992 151.589C173.965 150.616 175.283 150.069 176.659 150.067H435.071C436.447 150.069 437.765 150.616 438.738 151.589C439.711 152.561 440.258 153.88 440.259 155.256V296.944C440.258 298.319 439.711 299.638 438.738 300.611C437.765 301.583 436.446 302.13 435.071 302.132Z" fill="white"/>
<path d="M472.033 374.346H0.683285C0.534542 374.349 0.388926 374.303 0.269137 374.215C0.149348 374.126 0.0621109 374.001 0.0210119 373.858C-0.00464835 373.761 -0.00764313 373.659 0.0122697 373.56C0.0321826 373.461 0.0744709 373.369 0.135871 373.289C0.197272 373.209 0.276152 373.144 0.366442 373.1C0.456732 373.055 0.556021 373.032 0.656676 373.032H471.979C472.136 373.027 472.29 373.074 472.416 373.168C472.542 373.261 472.633 373.394 472.674 373.546C472.695 373.642 472.695 373.742 472.673 373.837C472.65 373.933 472.607 374.023 472.545 374.1C472.484 374.176 472.406 374.238 472.317 374.281C472.228 374.324 472.131 374.346 472.033 374.346Z" fill="#CCCCCC"/>
<path d="M367.252 200.245C368.578 196.017 371.595 192.14 375.766 190.711C379.938 189.282 387.216 190.617 389.184 194.584C392.019 200.302 390.745 207.303 389.242 213.511C388.458 213.469 387.666 213.437 386.873 213.407L385.75 209.666V213.37C379.557 213.179 373.109 213.298 366.657 213.422C366.079 209.028 365.925 204.472 367.252 200.245Z" fill="#2F2E41"/>
<path d="M424.162 361.333L418.952 363.516L408.051 344.459L415.741 341.237L424.162 361.333Z" fill="#9F616A"/>
<path d="M427.608 365.826L410.808 372.866L410.719 372.654C409.993 370.92 409.985 368.968 410.697 367.228C411.409 365.488 412.783 364.102 414.518 363.375L424.778 359.075L427.608 365.826Z" fill="#2F2E41"/>
<path d="M347.758 271.313C347.433 270.843 347.214 270.308 347.118 269.745C347.022 269.181 347.05 268.604 347.202 268.053C347.353 267.502 347.623 266.991 347.993 266.555C348.363 266.12 348.824 265.771 349.344 265.533L360.542 231.743L368.041 235.743L354.676 267.7C355.017 268.599 355.017 269.593 354.676 270.492C354.334 271.391 353.674 272.134 352.822 272.579C351.969 273.024 350.982 273.141 350.049 272.908C349.116 272.675 348.301 272.107 347.758 271.313Z" fill="#9F616A"/>
<path d="M361.565 367.39H355.916L353.228 345.601H361.566L361.565 367.39Z" fill="#9F616A"/>
<path d="M363.005 372.866L344.791 372.865V372.635C344.791 370.755 345.538 368.952 346.867 367.622C348.197 366.292 350 365.546 351.88 365.545L363.006 365.546L363.005 372.866Z" fill="#2F2E41"/>
<path d="M384.215 243.457L385.495 246.785L385.239 250.113L360.663 247.041L361.431 244.225L364.247 240.897L384.215 243.457Z" fill="#9F616A"/>
<path d="M376.294 213.509C381.235 213.509 385.241 209.503 385.241 204.562C385.241 199.62 381.235 195.614 376.294 195.614C371.353 195.614 367.347 199.62 367.347 204.562C367.347 209.503 371.353 213.509 376.294 213.509Z" fill="#9F616A"/>
<path d="M366.806 219.906L371.926 216.834L382.166 215.81L391.217 217.858L391.126 234.498L385.494 246.786L361.43 244.226L360.406 240.877C360.406 240.877 353.75 231.938 360.918 226.818L366.806 219.906Z" fill="#6C63FF"/>
<path d="M368.087 220.674L366.807 219.906C366.807 219.906 359.895 221.186 358.359 225.282C356.823 229.378 355.287 247.81 355.287 247.81L361.687 248.57L363.991 233.474L368.087 220.674Z" fill="#6C63FF"/>
<path d="M385.494 248.834V254.52C385.494 254.52 392.15 263.17 388.566 269.826C388.566 269.826 396.246 284.162 396.758 289.282L403.926 312.834C403.926 312.834 421.846 330.754 420.31 343.554L421.334 347.65L409.558 352.77L406.998 349.186L387.03 314.882L370.134 283.65L367.062 320.514C367.062 320.514 369.11 349.186 363.478 352.258L362.966 356.866H351.015V352.485C351.015 352.485 346.582 336.898 349.142 325.122L348.118 275.458C348.118 275.458 352.726 254.466 358.358 250.882L360.406 245.762L385.494 248.834Z" fill="#2F2E41"/>
<path d="M370.146 192.911C371.865 191.863 373.834 191.296 375.848 191.27C377.861 191.243 379.844 191.758 381.59 192.76C383.337 193.763 384.781 195.216 385.774 196.968C386.766 198.719 387.27 200.706 387.232 202.719C382.23 202.949 376.977 203.009 371.649 203.019L370.39 199.938L369.648 203.021C368.025 203.021 366.399 203.019 364.769 203.015C364.703 201.008 365.164 199.018 366.108 197.245C367.051 195.472 368.444 193.977 370.146 192.911Z" fill="#2F2E41"/>
<path d="M355.629 194.001L235.176 224.633L255.841 305.897L376.295 275.265L355.629 194.001Z" fill="white"/>
<path d="M376.816 275.575L255.532 306.418L234.655 224.324L355.939 193.48L376.816 275.575ZM256.151 305.376L375.774 274.956L355.319 194.522L235.697 224.943L256.151 305.376Z" fill="#3F3D56"/>
<path d="M261.49 285.495L361.586 260.041L347.089 203.037L246.994 228.492L261.49 285.495Z" fill="#E6E6E6"/>
<path d="M282.902 256.764C288.619 256.764 293.253 252.13 293.253 246.413C293.253 240.696 288.619 236.062 282.902 236.062C277.185 236.062 272.55 240.696 272.55 246.413C272.55 252.13 277.185 256.764 282.902 256.764Z" fill="#6C63FF"/>
<path d="M322.223 269.328L273.008 281.844C272.947 281.86 272.884 281.871 272.821 281.876L285.844 235.639C285.922 235.352 286.075 235.09 286.288 234.882C286.5 234.673 286.764 234.524 287.052 234.451C287.341 234.377 287.644 234.382 287.93 234.464C288.216 234.546 288.475 234.702 288.681 234.917L311.183 258.001L312.261 259.106L322.223 269.328Z" fill="#3F3D56"/>
<path opacity="0.2" d="M322.223 269.328L305.42 273.601L310.622 259.522L310.996 258.508L311.184 258.001L312.261 259.105L322.223 269.328Z" fill="black"/>
<path d="M349.626 262.359L307.059 273.184L312.261 259.105L312.635 258.091L319.413 239.744C319.542 239.457 319.73 239.2 319.965 238.991C320.2 238.782 320.477 238.624 320.776 238.528C321.076 238.433 321.393 238.401 321.706 238.436C322.018 238.471 322.32 238.571 322.592 238.73C322.663 238.777 322.731 238.828 322.796 238.883L349.626 262.359Z" fill="#3F3D56"/>
<path d="M376.983 260.59C377.19 260.637 377.392 260.699 377.589 260.778L393.209 250.026L392.851 245.433L399.712 243.988L401.135 252.057C401.25 252.709 401.15 253.38 400.851 253.971C400.552 254.561 400.069 255.039 399.475 255.331L380.127 264.874C380.054 265.685 379.735 266.456 379.213 267.082C378.692 267.708 377.991 268.16 377.206 268.379C376.421 268.597 375.588 268.572 374.818 268.305C374.047 268.039 373.377 267.544 372.894 266.887C372.412 266.23 372.141 265.442 372.118 264.627C372.095 263.812 372.32 263.01 372.764 262.326C373.208 261.643 373.849 261.11 374.603 260.8C375.357 260.49 376.187 260.417 376.983 260.59Z" fill="#9F616A"/>
<path d="M387.542 218.625L391.217 217.857C391.217 217.857 399.318 215.041 399.83 225.281L400.854 249.345L393.249 250.369L390.102 229.377L387.542 218.625Z" fill="#6C63FF"/>
</g>
<defs>
<clipPath id="clip0_1713_580">
<rect width="472.689" height="236.618" fill="white" transform="translate(0 137.728)"/>
</clipPath>
</defs>
</svg>
